<svg width="35" height="35" viewBox="0 0 35 35" fill="none" xmlns="http://www.w3.org/2000/svg">
<path d="M13.125 14.5833H10.2083V17.5H13.125V14.5833ZM18.9583 14.5833H16.0417V17.5H18.9583V14.5833ZM24.7917 14.5833H21.875V17.5H24.7917V14.5833ZM27.7083 4.375H26.25V1.45834H23.3333V4.375H11.6667V1.45834H8.75V4.375H7.29167C6.51812 4.375 5.77625 4.68229 5.22927 5.22927C4.68229 5.77626 4.375 6.51812 4.375 7.29167V27.7083C4.375 28.4819 4.68229 29.2237 5.22927 29.7707C5.77625 30.3177 6.51812 30.625 7.29167 30.625H27.7083C28.4819 30.625 29.2237 30.3177 29.7707 29.7707C30.3177 29.2237 30.625 28.4819 30.625 27.7083V7.29167C30.625 6.51812 30.3177 5.77626 29.7707 5.22927C29.2237 4.68229 28.4819 4.375 27.7083 4.375ZM27.7083 27.7083H7.29167V11.6667H27.7083V27.7083Z" fill="black"/>
</svg>
