<svg width="29" height="29" viewBox="0 0 29 29" fill="none" xmlns="http://www.w3.org/2000/svg">
<path d="M14.5 2.41667C12.9132 2.41667 11.3419 2.72921 9.87591 3.33646C8.40989 3.9437 7.07783 4.83375 5.95579 5.95579C3.68973 8.22186 2.41666 11.2953 2.41666 14.5C2.41666 17.7047 3.68973 20.7781 5.95579 23.0442C7.07783 24.1662 8.40989 25.0563 9.87591 25.6635C11.3419 26.2708 12.9132 26.5833 14.5 26.5833C17.7047 26.5833 20.7781 25.3103 23.0442 23.0442C25.3103 20.7781 26.5833 17.7047 26.5833 14.5C26.5833 12.9132 26.2708 11.3419 25.6635 9.87591C25.0563 8.40989 24.1662 7.07784 23.0442 5.95579C21.9222 4.83375 20.5901 3.9437 19.1241 3.33646C17.6581 2.72921 16.0868 2.41667 14.5 2.41667V2.41667ZM19.575 19.575L13.2917 15.7083V8.45833H15.1042V14.7417L20.5417 18.0042L19.575 19.575Z" fill="black"/>
</svg>
