<svg width="22" height="21" viewBox="0 0 22 21" fill="none" xmlns="http://www.w3.org/2000/svg">
<path d="M18.4273 18.3785H3.01537C2.64473 18.3785 2.34529 18.0903 2.34529 17.7336V2.90187C2.34529 2.54518 2.64473 2.25701 3.01537 2.25701H18.4273C18.7979 2.25701 19.0974 2.54518 19.0974 2.90187V17.7336C19.0974 18.0903 18.7979 18.3785 18.4273 18.3785Z" fill="black"/>
<path d="M14.1576 7.3776C14.2497 7.27281 14.1723 7.11361 14.0299 7.11361H12.7965C12.6981 7.11361 12.6038 7.15593 12.5389 7.22848L10.7213 9.3142L8.90373 7.22848C8.84091 7.15593 8.74668 7.11361 8.64617 7.11361H7.4128C7.27041 7.11361 7.19293 7.27281 7.28506 7.3776L9.84604 10.3178L7.28506 13.2579C7.26442 13.2813 7.25118 13.3098 7.24691 13.3402C7.24264 13.3706 7.24752 13.4015 7.26097 13.4293C7.27442 13.4571 7.29587 13.4806 7.32278 13.497C7.3497 13.5134 7.38094 13.5221 7.4128 13.5219H8.64617C8.74459 13.5219 8.83882 13.4796 8.90373 13.407L10.7213 11.3213L12.5389 13.407C12.6018 13.4796 12.696 13.5219 12.7965 13.5219H14.0299C14.1723 13.5219 14.2497 13.3627 14.1576 13.2579L11.5966 10.3178L14.1576 7.3776V7.3776Z" fill="white"/>
</svg>
