<svg width="32" height="32" viewBox="0 0 32 32" fill="none" xmlns="http://www.w3.org/2000/svg">
<path d="M30.4 4.80001C30.1333 5.42224 29.9556 6.26668 29.9111 6.80001C29.2 6.80001 28.6222 7.37779 28.6222 8.0889C28.6222 8.80001 29.2 9.37779 29.9111 9.37779C30 9.37779 30.0889 9.37779 30.1778 9.33335C30.0889 11.2445 28.5333 12.7556 26.5778 12.7556C24.6222 12.7556 23.0667 11.2445 22.9778 9.33335C23.5556 9.24446 24.0444 8.71112 24.0444 8.0889C24.0444 7.37779 23.4667 6.80001 22.7556 6.80001H22.6222C22.4444 5.91112 21.9556 4.4889 21.3778 4.4889C20.8 4.4889 20.3111 5.86668 20.1333 6.80001C20.0444 6.80001 19.9556 6.75557 19.8667 6.75557C19.1556 6.75557 18.5778 7.33335 18.5778 8.04446C18.5778 8.66668 19.0222 9.20001 19.6444 9.33335C19.5556 11.2445 18 12.7556 16.0444 12.7556C14.0889 12.7556 12.5333 11.2 12.4444 9.2889C13.0222 9.15557 13.4222 8.66668 13.4222 8.04446C13.4222 7.33335 12.8444 6.75557 12.1333 6.75557H12C11.8222 5.86668 11.3333 4.44446 10.7556 4.44446C10.1778 4.44446 9.68889 5.82224 9.51111 6.75557C9.42222 6.75557 9.33333 6.71112 9.24444 6.71112C8.53333 6.71112 7.95555 7.2889 7.95555 8.00001C7.95555 8.66668 8.44444 9.20001 9.11111 9.2889C9.02222 11.2 7.42222 12.7111 5.51111 12.7111C3.55555 12.7111 2 11.2 1.91111 9.2889C2 9.2889 2.08889 9.33335 2.17777 9.33335C2.88889 9.33335 3.46666 8.75557 3.46666 8.04446C3.46666 7.33335 2.88889 6.75557 2.17777 6.75557H2.08889C2 6.17779 1.86666 5.42224 1.68889 4.80001C1.55555 4.31112 0.888885 4.40001 0.888885 4.93335V25.7333H31.2889V5.02224C31.2 4.4889 30.6222 4.35557 30.4 4.80001Z" fill="#FFB636"/>
<path d="M31.4667 19.3778H0.533333C0.222222 19.3778 0 19.1555 0 18.8444V17.3333C0 17.0222 0.222222 16.8 0.533333 16.8H31.4222C31.7333 16.8 31.9556 17.0222 31.9556 17.3333V18.8444C32 19.1555 31.7778 19.3778 31.4667 19.3778V19.3778ZM32 26.9333V25.4222C32 25.1111 31.7778 24.8889 31.4667 24.8889H0.533333C0.222222 24.8889 0 25.1111 0 25.4222V26.9333C0 27.2444 0.222222 27.4667 0.533333 27.4667H31.4222C31.7778 27.4667 32 27.2444 32 26.9333Z" fill="#FFD469"/>
<path d="M28.6222 22.2222C28.6222 23.0222 28 23.6444 27.2 23.6444C26.4 23.6444 25.7778 23.0222 25.7778 22.2222C25.7778 21.4222 26.4 20.8 27.2 20.8C28 20.8 28.6222 21.4222 28.6222 22.2222ZM16 20.8C15.2 20.8 14.5778 21.4222 14.5778 22.2222C14.5778 23.0222 15.2 23.6444 16 23.6444C16.8 23.6444 17.4222 23.0222 17.4222 22.2222C17.4222 21.4222 16.8 20.8 16 20.8ZM4.8 20.8C4 20.8 3.37778 21.4222 3.37778 22.2222C3.37778 23.0222 4 23.6444 4.8 23.6444C5.6 23.6444 6.22222 22.9778 6.22222 22.2222C6.22222 21.4667 5.6 20.8 4.8 20.8Z" fill="#FFC7EF"/>
</svg>
