<svg width="23" height="26" viewBox="0 0 23 26" fill="none" xmlns="http://www.w3.org/2000/svg">
<path d="M9.02203 10.907C8.73148 10.8824 8.44028 10.9462 8.18655 11.0898C7.93282 11.2335 7.72838 11.4504 7.59998 11.7122C7.47158 11.974 7.4252 12.2685 7.46693 12.5571C7.50865 12.8456 7.63653 13.1149 7.83383 13.3296C8.03112 13.5443 8.28864 13.6944 8.57267 13.7604C8.85671 13.8263 9.15403 13.8049 9.42572 13.6991C9.69741 13.5932 9.93081 13.4078 10.0954 13.1671C10.2599 12.9264 10.348 12.6416 10.348 12.35C10.3558 12.1682 10.3277 11.9866 10.2652 11.8156C10.2028 11.6447 10.1073 11.4877 9.98411 11.3537C9.86096 11.2197 9.7126 11.1112 9.54752 11.0346C9.38244 10.9579 9.20387 10.9146 9.02203 10.907V10.907ZM13.767 10.907C13.4765 10.8824 13.1853 10.9462 12.9316 11.0898C12.6778 11.2335 12.4734 11.4504 12.345 11.7122C12.2166 11.974 12.1702 12.2685 12.2119 12.5571C12.2537 12.8456 12.3815 13.1149 12.5788 13.3296C12.7761 13.5443 13.0336 13.6944 13.3177 13.7604C13.6017 13.8263 13.899 13.8049 14.1707 13.6991C14.4424 13.5932 14.6758 13.4078 14.8404 13.1671C15.0049 12.9264 15.093 12.6416 15.093 12.35C15.1008 12.1682 15.0727 11.9866 15.0102 11.8156C14.9478 11.6447 14.8523 11.4877 14.7291 11.3537C14.606 11.2197 14.4576 11.1112 14.2925 11.0346C14.1274 10.9579 13.9489 10.9146 13.767 10.907V10.907Z" fill="white"/>
<path d="M20.085 0H2.66501C2.31416 0.000786916 1.96691 0.0706871 1.64309 0.205708C1.31926 0.340728 1.02521 0.538223 0.777728 0.786912C0.530247 1.0356 0.334185 1.33061 0.200741 1.65509C0.0672983 1.97957 -0.000911169 2.32715 9.19105e-06 2.678V20.254C-0.000911169 20.6048 0.0672983 20.9524 0.200741 21.2769C0.334185 21.6014 0.530247 21.8964 0.777728 22.1451C1.02521 22.3938 1.31926 22.5913 1.64309 22.7263C1.96691 22.8613 2.31416 22.9312 2.66501 22.932H17.407L16.718 20.527L18.382 22.074L19.955 23.53L22.75 26V2.678C22.7509 2.32715 22.6827 1.97957 22.5493 1.65509C22.4158 1.33061 22.2198 1.0356 21.9723 0.786912C21.7248 0.538223 21.4308 0.340728 21.1069 0.205708C20.7831 0.0706871 20.4359 0.000786916 20.085 0V0ZM15.067 16.978C15.067 16.978 14.599 16.419 14.209 15.925C15.1513 15.7031 15.9848 15.1552 16.562 14.378C16.0942 14.6893 15.5927 14.9466 15.067 15.145C14.4622 15.4031 13.8297 15.5907 13.182 15.704C12.0686 15.909 10.9268 15.9046 9.81501 15.691C9.16231 15.5633 8.52264 15.3762 7.90401 15.132C7.57791 15.0066 7.26083 14.8589 6.95501 14.69C6.91601 14.664 6.87701 14.651 6.83801 14.625C6.81845 14.6153 6.80083 14.602 6.78601 14.586C6.6613 14.518 6.53983 14.4443 6.42201 14.365C6.97834 15.1259 7.78304 15.6685 8.69701 15.899C8.30701 16.393 7.82601 16.978 7.82601 16.978C7.05378 16.9988 6.28827 16.8295 5.59687 16.4849C4.90546 16.1403 4.30935 15.6311 3.86101 15.002C3.90321 12.3665 4.54331 9.77504 5.73301 7.423C6.77995 6.6007 8.05637 6.12375 9.38601 6.058L9.51601 6.214C8.26506 6.52357 7.09771 7.10503 6.09701 7.917C6.09701 7.917 6.38301 7.761 6.86401 7.54C7.79846 7.11344 8.79438 6.83704 9.81501 6.721C9.88778 6.70593 9.96173 6.69723 10.036 6.695C10.9072 6.5815 11.7888 6.57277 12.662 6.669C14.0353 6.82583 15.3645 7.24979 16.575 7.917C15.625 7.14373 14.5217 6.58099 13.338 6.266L13.52 6.058C14.8496 6.12375 16.1261 6.6007 17.173 7.423C18.3627 9.77504 19.0028 12.3665 19.045 15.002C18.593 15.6305 17.9944 16.139 17.3011 16.4834C16.6078 16.8278 15.8409 16.9976 15.067 16.978V16.978Z" fill="white"/>
</svg>
