<svg width="31" height="31" viewBox="0 0 31 31" fill="none" xmlns="http://www.w3.org/2000/svg">
<path d="M26.1562 4.35938H4.84375C4.20241 4.36256 3.58824 4.61874 3.13474 5.07224C2.68124 5.52574 2.42506 6.13991 2.42188 6.78125V26.1562C2.42215 26.4039 2.4857 26.6473 2.6065 26.8635C2.7273 27.0797 2.90135 27.2614 3.11211 27.3914C3.32301 27.5228 3.5643 27.5974 3.81254 27.608C4.06079 27.6186 4.30757 27.5649 4.52891 27.452L7.75 25.8414L10.9711 27.452C11.1742 27.5532 11.398 27.606 11.625 27.606C11.852 27.606 12.0758 27.5532 12.2789 27.452L15.5 25.8414L18.7211 27.452C18.9236 27.5551 19.1477 27.6089 19.375 27.6089C19.6023 27.6089 19.8264 27.5551 20.0289 27.452L23.25 25.8414L26.4711 27.452C26.6924 27.5649 26.9392 27.6186 27.1875 27.608C27.4357 27.5974 27.677 27.5228 27.8879 27.3914C28.0987 27.2614 28.2727 27.0797 28.3935 26.8635C28.5143 26.6473 28.5779 26.4039 28.5781 26.1562V6.78125C28.5749 6.13991 28.3188 5.52574 27.8653 5.07224C27.4118 4.61874 26.7976 4.36256 26.1562 4.35938V4.35938ZM25.6719 23.807L23.9039 22.923C23.7008 22.8218 23.477 22.769 23.25 22.769C23.023 22.769 22.7992 22.8218 22.5961 22.923L19.375 24.5336L16.1539 22.923C15.9514 22.8199 15.7273 22.7661 15.5 22.7661C15.2727 22.7661 15.0486 22.8199 14.8461 22.923L11.625 24.5336L8.40391 22.923C8.20081 22.8218 7.97695 22.769 7.75 22.769C7.52305 22.769 7.29919 22.8218 7.09609 22.923L5.32812 23.807V7.26562H25.6719V23.807Z" fill="white"/>
<path d="M16.4688 13.0781C16.4688 12.6927 16.6218 12.3231 16.8944 12.0506C17.1669 11.7781 17.5365 11.625 17.9219 11.625H22.2812C22.6666 11.625 23.0363 11.7781 23.3088 12.0506C23.5813 12.3231 23.7344 12.6927 23.7344 13.0781C23.7344 13.4635 23.5813 13.8331 23.3088 14.1056C23.0363 14.3782 22.6666 14.5312 22.2812 14.5312H17.9219C17.5365 14.5312 17.1669 14.3782 16.8944 14.1056C16.6218 13.8331 16.4688 13.4635 16.4688 13.0781ZM16.4688 17.9219C16.4688 17.5365 16.6218 17.1669 16.8944 16.8944C17.1669 16.6218 17.5365 16.4688 17.9219 16.4688H22.2812C22.6666 16.4688 23.0363 16.6218 23.3088 16.8944C23.5813 17.1669 23.7344 17.5365 23.7344 17.9219C23.7344 18.3073 23.5813 18.6769 23.3088 18.9494C23.0363 19.2219 22.6666 19.375 22.2812 19.375H17.9219C17.5365 19.375 17.1669 19.2219 16.8944 18.9494C16.6218 18.6769 16.4688 18.3073 16.4688 17.9219ZM8.71875 20.8281H13.5625C13.9479 20.8281 14.3175 20.675 14.59 20.4025C14.8625 20.13 15.0156 19.7604 15.0156 19.375V11.625C15.0156 11.2396 14.8625 10.87 14.59 10.5975C14.3175 10.325 13.9479 10.1719 13.5625 10.1719H8.71875C8.33336 10.1719 7.96375 10.325 7.69124 10.5975C7.41872 10.87 7.26562 11.2396 7.26562 11.625V19.375C7.26562 19.7604 7.41872 20.13 7.69124 20.4025C7.96375 20.675 8.33336 20.8281 8.71875 20.8281ZM10.1719 13.0781H12.1094V17.9219H10.1719V13.0781Z" fill="white"/>
</svg>
