<svg width="36" height="36" viewBox="0 0 36 36" fill="none" xmlns="http://www.w3.org/2000/svg">
<path d="M18.1603 1.15875C6.62625 1.15875 6.71906 11.8238 6.71906 11.9925C6.71906 18.9 7.24781 28.6566 10.0125 32.4956C11.1094 34.0172 13.2272 34.1016 13.2272 34.1016L18 34.0959L22.7728 34.1044C22.7728 34.1044 24.8934 34.02 25.9875 32.4984C28.7522 28.6594 29.2809 18.9028 29.2809 11.9953C29.2781 11.8238 29.6944 1.15875 18.1603 1.15875V1.15875Z" fill="#543930"/>
<path d="M18.1603 1.15875C6.62625 1.15875 6.71906 11.8238 6.71906 11.9925C6.71906 18.9 7.24781 28.6566 10.0125 32.4956C11.1094 34.0172 13.2272 34.1016 13.2272 34.1016L18 34.0959L22.7728 34.1044C22.7728 34.1044 24.8934 34.02 25.9875 32.4984C28.7522 28.6594 29.2809 18.9028 29.2809 11.9953C29.2781 11.8238 29.6944 1.15875 18.1603 1.15875V1.15875Z" fill="url(#paint0_radial_2_82)"/>
<path d="M30.3834 34.875C30.3834 34.875 27.1294 26.7019 27.0562 26.8762C26.5472 28.094 25.9791 28.9659 23.7516 28.2347C21.9544 27.644 20.4244 27.5315 18.0844 27.5315H17.9156C15.5756 27.5315 14.0456 27.644 12.2484 28.2347C10.0209 28.9659 9.45281 28.094 8.94375 26.8762C8.87062 26.7047 5.61656 34.875 5.61656 34.875H30.3834V34.875Z" fill="url(#paint1_linear_2_82)"/>
<path d="M15.4462 25.335V28.1419C15.4462 29.4103 16.4869 30.4397 17.7694 30.4397H18.2334C19.5159 30.4397 20.5566 29.4103 20.5566 28.1419V25.335H15.4462Z" fill="#E59600"/>
<path d="M18 4.51126C13.1625 4.51126 8.68219 8.10845 8.68219 15.7359C8.68219 21.8616 12.4763 25.4869 15.7781 26.6569C16.5656 26.9353 17.325 27.0759 18 27.0759C18.6694 27.0759 19.4259 26.9381 20.2078 26.6625C23.5153 25.4981 27.3178 21.8728 27.3178 15.7388C27.3178 8.10845 22.8375 4.51126 18 4.51126V4.51126Z" fill="#FFCA28"/>
<path d="M19.0856 19.1419C19.0547 19.1306 19.0266 19.1222 18.9956 19.1194H17.0044C16.9734 19.1222 16.9425 19.1306 16.9144 19.1419C16.7344 19.215 16.6359 19.4006 16.7203 19.6003C16.8047 19.8 17.2013 20.3569 18 20.3569C18.7988 20.3569 19.1953 19.7972 19.2797 19.6003C19.3641 19.4006 19.2656 19.215 19.0856 19.1419V19.1419Z" fill="#E59600"/>
<path d="M20.3681 21.4144C19.4738 21.946 16.5347 21.946 15.6403 21.4144C15.1256 21.1078 14.5997 21.5775 14.8134 22.0444C15.0244 22.5028 16.6247 23.5688 18.0113 23.5688C19.3978 23.5688 20.9784 22.5028 21.1894 22.0444C21.4003 21.5775 20.8828 21.1078 20.3681 21.4144Z" fill="#795548"/>
<path d="M13.3762 17.9747C14.142 17.9747 14.7628 17.3325 14.7628 16.5403C14.7628 15.7481 14.142 15.106 13.3762 15.106C12.6105 15.106 11.9897 15.7481 11.9897 16.5403C11.9897 17.3325 12.6105 17.9747 13.3762 17.9747Z" fill="#404040"/>
<path d="M22.6237 17.9747C23.3895 17.9747 24.0103 17.3325 24.0103 16.5403C24.0103 15.7481 23.3895 15.106 22.6237 15.106C21.858 15.106 21.2372 15.7481 21.2372 16.5403C21.2372 17.3325 21.858 17.9747 22.6237 17.9747Z" fill="#404040"/>
<path d="M15.4659 14.0118C15.2044 13.6659 14.6025 13.1653 13.4325 13.1653C12.2625 13.1653 11.6578 13.6687 11.3991 14.0118C11.2838 14.1637 11.3119 14.3409 11.3934 14.4478C11.4666 14.5462 11.6859 14.639 11.9278 14.5575C12.1697 14.4759 12.6422 14.2312 13.4325 14.2256C14.2228 14.2312 14.6953 14.4759 14.9372 14.5575C15.1791 14.639 15.3984 14.549 15.4716 14.4478C15.5503 14.3409 15.5784 14.1637 15.4659 14.0118V14.0118ZM24.6038 14.0118C24.3422 13.6659 23.7403 13.1653 22.5703 13.1653C21.4003 13.1653 20.7956 13.6687 20.5369 14.0118C20.4216 14.1637 20.4497 14.3409 20.5313 14.4478C20.6044 14.5462 20.8238 14.639 21.0656 14.5575C21.3075 14.4759 21.78 14.2312 22.5703 14.2256C23.3606 14.2312 23.8331 14.4759 24.075 14.5575C24.3169 14.639 24.5363 14.549 24.6094 14.4478C24.6909 14.3409 24.7191 14.1637 24.6038 14.0118Z" fill="#6D4C41"/>
<path d="M18.1603 1.15875C6.62625 1.15875 6.71906 11.8238 6.71906 11.9925C6.71906 14.175 6.7725 16.6416 6.93 19.1138L8.82 19.1081C8.80313 18.2869 9.37969 13.2103 11.0925 12.825C17.3813 11.4103 20.9391 8.07469 20.9391 8.07469C21.8644 10.0941 24.7584 12.0656 25.7963 12.8166C26.6484 13.4325 26.91 18.0338 26.8931 19.1109H29.0616C29.0616 19.0969 29.0672 19.0828 29.0672 19.0659C29.2247 16.605 29.2753 14.1553 29.2753 11.9869C29.2781 11.8238 29.6944 1.15875 18.1603 1.15875V1.15875Z" fill="#543930"/>
<path d="M18.1603 1.15875C6.62625 1.15875 6.71906 11.8238 6.71906 11.9925C6.71906 14.175 6.7725 16.6416 6.93 19.1138L8.82 19.1081C8.80313 18.2869 9.37969 13.2103 11.0925 12.825C17.3813 11.4103 20.9391 8.07469 20.9391 8.07469C21.8644 10.0941 24.7584 12.0656 25.7963 12.8166C26.6484 13.4325 26.91 18.0338 26.8931 19.1109H29.0616C29.0616 19.0969 29.0672 19.0828 29.0672 19.0659C29.2247 16.605 29.2753 14.1553 29.2753 11.9869C29.2781 11.8238 29.6944 1.15875 18.1603 1.15875V1.15875Z" fill="url(#paint2_radial_2_82)"/>
<path d="M8.24062 4.64064C9.05343 3.73501 10.4878 2.88564 12.0459 2.2922C14.4591 1.37251 15.3169 1.17001 16.6894 1.15876C17.3166 1.15314 17.595 1.3247 17.4881 1.67064C17.37 2.05033 17.0578 2.39064 16.2366 2.43001C14.9766 2.53408 14.2397 2.9897 13.0697 3.65908C12.5184 3.92345 12.0881 5.26501 11.5059 5.68126C10.9687 6.06658 9.6553 7.34626 9.27562 9.63283C9.16312 10.305 6.2128 9.94501 6.17624 8.60345C6.16499 8.22095 6.76405 6.28595 8.24062 4.64064V4.64064Z" fill="url(#paint3_linear_2_82)"/>
<path d="M10.6369 8.18999C10.7184 7.90874 10.6987 7.56561 10.35 7.37155L7.14937 5.68686C7.07343 5.6503 6.99187 5.63342 6.9103 5.63342C6.66562 5.63342 6.42656 5.79092 6.33656 6.0103L1.67906 18.0534C1.36406 18.9056 1.06593 19.7944 1.27968 20.9644C1.27968 20.9644 3.83624 33.9469 4.15124 34.875H10.4962C10.4962 34.875 9.22499 28.8675 9.34312 28.9237L9.18562 27.5737C7.14093 21.8981 7.15499 20.0615 7.34905 19.3809L10.6369 8.18999V8.18999Z" fill="url(#paint4_linear_2_82)"/>
<path d="M27.7594 4.64064C26.9466 3.73501 25.5122 2.88564 23.9541 2.2922C21.5438 1.37251 20.6831 1.17001 19.3106 1.15876C18.6834 1.15314 18.405 1.3247 18.5119 1.67064C18.63 2.05033 18.9422 2.39064 19.7634 2.43001C21.0234 2.53408 21.7603 2.9897 22.9303 3.65908C23.4816 3.92345 23.9119 5.26501 24.4941 5.68126C25.0313 6.06658 26.3447 7.34626 26.7244 9.63283C26.8369 10.305 29.7872 9.94501 29.8238 8.60345C29.835 8.22095 29.2359 6.28595 27.7594 4.64064Z" fill="url(#paint5_linear_2_82)"/>
<path d="M34.3209 18.0534L29.6634 6.01314C29.5734 5.79376 29.3344 5.63626 29.0897 5.63626C29.0081 5.63626 28.9294 5.65314 28.8506 5.6897L25.65 7.37439C25.3013 7.56845 25.2816 7.91157 25.3631 8.19282L28.6538 19.3838C28.8478 20.0644 28.8619 21.9009 26.8172 27.5766L26.6597 28.9266C26.7778 28.8703 25.5066 34.8778 25.5066 34.8778H31.8516C32.1666 33.9497 34.7231 20.9672 34.7231 20.9672C34.9341 19.7944 34.6359 18.9028 34.3209 18.0534V18.0534Z" fill="url(#paint6_linear_2_82)"/>
<defs>
<radialGradient id="paint0_radial_2_82" cx="0" cy="0" r="1" gradientUnits="userSpaceOnUse" gradientTransform="translate(18 16.7874) scale(13.3684 15.9097)">
<stop offset="0.794" stop-color="#6D4C41" stop-opacity="0"/>
<stop offset="1" stop-color="#6D4C41"/>
</radialGradient>
<linearGradient id="paint1_linear_2_82" x1="18" y1="7.72197" x2="18" y2="34.7155" gradientUnits="userSpaceOnUse">
<stop stop-color="#651FFF"/>
<stop offset="0.705" stop-color="#5914F2"/>
<stop offset="1" stop-color="#530EEB"/>
</linearGradient>
<radialGradient id="paint2_radial_2_82" cx="0" cy="0" r="1" gradientUnits="userSpaceOnUse" gradientTransform="translate(18.0937 17.9207) scale(14.0029 16.9925)">
<stop offset="0.794" stop-color="#6D4C41" stop-opacity="0"/>
<stop offset="1" stop-color="#6D4C41"/>
</radialGradient>
<linearGradient id="paint3_linear_2_82" x1="18.4289" y1="5.5623" x2="7.09424" y2="5.5623" gradientUnits="userSpaceOnUse">
<stop offset="0.6" stop-color="#FFCA28"/>
<stop offset="1" stop-color="#FFB300"/>
</linearGradient>
<linearGradient id="paint4_linear_2_82" x1="5.94196" y1="6.2938" x2="5.94196" y2="34.7071" gradientUnits="userSpaceOnUse">
<stop stop-color="#651FFF"/>
<stop offset="0.705" stop-color="#5914F2"/>
<stop offset="1" stop-color="#530EEB"/>
</linearGradient>
<linearGradient id="paint5_linear_2_82" x1="18.4888" y1="5.5623" x2="29.8238" y2="5.5623" gradientUnits="userSpaceOnUse">
<stop offset="0.6" stop-color="#FFCA28"/>
<stop offset="1" stop-color="#FFB300"/>
</linearGradient>
<linearGradient id="paint6_linear_2_82" x1="30.0583" y1="6.29382" x2="30.0583" y2="34.7071" gradientUnits="userSpaceOnUse">
<stop stop-color="#651FFF"/>
<stop offset="0.705" stop-color="#5914F2"/>
<stop offset="1" stop-color="#530EEB"/>
</linearGradient>
</defs>
</svg>
