<svg width="37" height="37" viewBox="0 0 37 37" fill="none" xmlns="http://www.w3.org/2000/svg">
<path d="M31.2274 35.8438C31.2274 35.8438 27.883 27.4436 27.8078 27.6228C27.2846 28.8745 26.7007 29.7706 24.4113 29.019C22.5642 28.412 20.9917 28.2963 18.5867 28.2963H18.4133C16.0083 28.2963 14.4358 28.412 12.5887 29.019C10.2993 29.7706 9.7154 28.8745 9.19219 27.6228C9.11704 27.4465 5.77258 35.8438 5.77258 35.8438H31.2274V35.8438Z" fill="url(#paint0_linear_2_100)"/>
<path d="M15.8753 26.0387V28.9236C15.8753 30.2272 16.9448 31.2852 18.263 31.2852H18.7399C20.058 31.2852 21.1276 30.2272 21.1276 28.9236V26.0387H15.8753ZM26.3394 14.5774H10.5421C8.83952 14.5774 7.44624 16.0632 7.44624 17.8756C7.44624 19.688 8.83952 21.1738 10.5421 21.1738H26.3394C28.0419 21.1738 29.4352 19.688 29.4352 17.8756C29.4352 16.0632 28.0419 14.5774 26.3394 14.5774V14.5774Z" fill="#E59600"/>
<path d="M18.5 3.19995C13.4703 3.19995 8.81062 8.5794 8.81062 16.3234C8.81062 24.024 13.612 27.831 18.5 27.831C23.388 27.831 28.1894 24.0211 28.1894 16.3205C28.1894 8.5794 23.5297 3.19995 18.5 3.19995V3.19995Z" fill="#FFCA28"/>
<path d="M19.6158 19.6736C19.584 19.662 19.5551 19.6533 19.5233 19.6505H17.4767C17.4449 19.6533 17.4131 19.662 17.3842 19.6736C17.1992 19.7487 17.098 19.9395 17.1848 20.1447C17.2715 20.35 17.6791 20.9223 18.5 20.9223C19.3209 20.9223 19.7285 20.3471 19.8152 20.1447C19.9019 19.9395 19.8008 19.7487 19.6158 19.6736V19.6736Z" fill="#E59600"/>
<path d="M20.9339 22.0092C20.0147 22.5555 16.994 22.5555 16.0748 22.0092C15.5458 21.6941 15.0052 22.1769 15.2249 22.6567C15.4417 23.1279 17.0865 24.2234 18.5116 24.2234C19.9366 24.2234 21.5612 23.1279 21.778 22.6567C21.9948 22.1769 21.4629 21.6941 20.9339 22.0092Z" fill="#795548"/>
<path d="M13.7478 18.474C14.5349 18.474 15.1729 17.814 15.1729 16.9998C15.1729 16.1856 14.5349 15.5256 13.7478 15.5256C12.9608 15.5256 12.3227 16.1856 12.3227 16.9998C12.3227 17.814 12.9608 18.474 13.7478 18.474Z" fill="#404040"/>
<path d="M23.2522 18.474C24.0392 18.474 24.6773 17.814 24.6773 16.9998C24.6773 16.1856 24.0392 15.5256 23.2522 15.5256C22.4651 15.5256 21.8271 16.1856 21.8271 16.9998C21.8271 17.814 22.4651 18.474 23.2522 18.474Z" fill="#404040"/>
<path d="M11.5683 14.6641C12.4875 13.3605 14.6497 13.3171 15.7337 14.4271C15.9216 14.6208 16.121 14.8694 15.9794 15.1498C15.8233 15.4591 15.5024 15.4099 15.2394 15.303C14.537 15.0197 13.8114 14.8925 13.057 15.0457C12.7303 15.1122 12.4499 15.2481 12.1406 15.3579C11.7244 15.4995 11.2995 15.0659 11.5683 14.6641V14.6641ZM24.8825 15.3579C24.2379 15.0775 23.5846 14.9156 22.8735 14.9966C22.5498 15.0342 22.2318 15.118 21.9312 15.2365C21.6913 15.3319 21.434 15.4851 21.1854 15.3174C20.4772 14.8289 21.7317 14.034 22.1017 13.875C22.8995 13.531 23.8505 13.5628 24.6223 13.9646C24.9288 14.1236 25.2612 14.3549 25.4433 14.6584C25.6716 15.037 25.3305 15.54 24.8825 15.3579Z" fill="#6D4C41"/>
<path d="M18.5058 1.16492H18.4942C5.36211 1.23429 8.05039 16.2366 8.05039 16.2366C8.05039 16.2366 8.64008 17.7831 8.90891 18.4653C8.94649 18.5636 9.09102 18.552 9.11414 18.4509C9.39454 17.1963 10.4034 12.7477 10.9121 11.3948C11.0575 11.0094 11.3337 10.6873 11.6925 10.4849C12.0513 10.2826 12.4698 10.2128 12.8748 10.2877C14.1641 10.5219 16.2135 10.8109 18.4769 10.8109H18.5231C20.7836 10.8109 22.8359 10.5219 24.1223 10.2877C24.9605 10.1345 25.7873 10.5999 26.085 11.3948C26.5909 12.7419 27.5939 17.1645 27.8772 18.4364C27.9003 18.5405 28.0448 18.5491 28.0824 18.4509L28.9438 16.2337C28.9496 16.2366 31.6408 1.23429 18.5058 1.16492V1.16492Z" fill="#543930"/>
<path d="M28.9496 16.2366C28.9496 16.2366 31.6408 1.23429 18.5058 1.16492H18.4942C18.289 1.16492 18.0895 1.1707 17.893 1.17937C17.5027 1.19671 17.1241 1.22562 16.7598 1.26898H16.7483C16.7223 1.27187 16.6991 1.27765 16.6731 1.28054C5.61938 2.67093 8.0504 16.2366 8.0504 16.2366L8.9118 18.4566C8.94938 18.5549 9.09102 18.5462 9.11415 18.4422C9.39743 17.1732 10.4034 12.7448 10.9121 11.3977C11.0575 11.0123 11.3337 10.6902 11.6925 10.4878C12.0513 10.2854 12.4698 10.2156 12.8749 10.2906C14.1641 10.5219 16.2135 10.8109 18.4769 10.8109H18.5231C20.7836 10.8109 22.8359 10.5219 24.1223 10.2877C24.9606 10.1345 25.7873 10.5999 26.085 11.3948C26.5938 12.7477 27.6026 17.205 27.8801 18.4537C27.9032 18.5578 28.0449 18.5665 28.0824 18.4682C28.357 17.7889 28.9496 16.2366 28.9496 16.2366V16.2366Z" fill="url(#paint1_radial_2_100)"/>
<path d="M8.46953 4.80422C9.30493 3.87922 10.7791 3.01204 12.3806 2.40501C14.8607 1.46555 15.7423 1.25743 17.153 1.24587C17.7976 1.24008 18.0838 1.41641 17.9739 1.76907C17.8525 2.15641 17.5316 2.50618 16.6876 2.54376C15.3926 2.65071 14.6352 3.1161 13.4327 3.79829C12.8662 4.06712 12.4239 5.44016 11.8256 5.86508C11.2734 6.25821 9.92352 7.56766 9.53328 9.90329C9.41766 10.5913 6.38539 10.2213 6.34782 8.8511C6.33625 8.46087 6.95196 6.48368 8.46953 4.80422V4.80422Z" fill="url(#paint2_linear_2_100)"/>
<path d="M10.9323 8.4175C11.0162 8.12843 10.9959 7.77578 10.6375 7.57632L7.34796 5.84484C7.26992 5.80726 7.18609 5.78992 7.10226 5.78992C6.85077 5.78992 6.60507 5.95179 6.51257 6.17726L1.7257 18.5549C1.40195 19.4308 1.09554 20.3442 1.31523 21.5467C1.31523 21.5467 3.94281 34.8898 4.26656 35.8437H10.7878L9.44077 28.3397C7.33929 22.5064 7.35374 20.6188 7.5532 19.9193L10.9323 8.4175V8.4175Z" fill="url(#paint3_linear_2_100)"/>
<path d="M28.5305 4.8042C27.6951 3.8792 26.2209 3.01201 24.6195 2.40498C22.1422 1.46553 21.2577 1.25741 19.847 1.24873C19.2024 1.24295 18.9163 1.41928 19.0261 1.77194C19.1475 2.15928 19.4684 2.50905 20.3124 2.54662C21.6074 2.65358 22.3648 3.11897 23.5673 3.80116C24.1338 4.06998 24.5761 5.44303 25.1745 5.86795C25.7266 6.26108 27.0765 7.57053 27.4667 9.90616C27.5823 10.5941 30.6146 10.2241 30.6522 8.85397C30.6638 8.46084 30.048 6.48366 28.5305 4.8042V4.8042Z" fill="url(#paint4_linear_2_100)"/>
<path d="M35.2743 18.5549L30.4874 6.18013C30.3949 5.95466 30.1492 5.79279 29.8977 5.79279C29.8139 5.79279 29.733 5.81013 29.652 5.84771L26.3625 7.57919C26.0041 7.77864 25.9838 8.1313 26.0677 8.42036L29.4497 19.9222C29.6491 20.6217 29.6636 22.5093 27.5621 28.3426L26.2151 35.8437H32.7363C33.0601 34.8898 35.6877 21.5467 35.6877 21.5467C35.9045 20.3442 35.598 19.4279 35.2743 18.5549Z" fill="url(#paint5_linear_2_100)"/>
<defs>
<linearGradient id="paint0_linear_2_100" x1="18.5" y1="6.0787" x2="18.5" y2="35.7111" gradientUnits="userSpaceOnUse">
<stop stop-color="#00BFA5"/>
<stop offset="0.47" stop-color="#00B29A"/>
<stop offset="1" stop-color="#009E89"/>
</linearGradient>
<radialGradient id="paint1_radial_2_100" cx="0" cy="0" r="1" gradientUnits="userSpaceOnUse" gradientTransform="translate(18.5003 13.6141) scale(11.011 12.4226)">
<stop offset="0.794" stop-color="#6D4C41" stop-opacity="0"/>
<stop offset="1" stop-color="#6D4C41"/>
</radialGradient>
<linearGradient id="paint2_linear_2_100" x1="18.9408" y1="5.74454" x2="7.29132" y2="5.74454" gradientUnits="userSpaceOnUse">
<stop offset="0.6" stop-color="#FFCA28"/>
<stop offset="1" stop-color="#FFB300"/>
</linearGradient>
<linearGradient id="paint3_linear_2_100" x1="6.10702" y1="6.07869" x2="6.10702" y2="35.7111" gradientUnits="userSpaceOnUse">
<stop stop-color="#00BFA5"/>
<stop offset="0.47" stop-color="#00B29A"/>
<stop offset="1" stop-color="#009E89"/>
</linearGradient>
<linearGradient id="paint4_linear_2_100" x1="19.0024" y1="5.74452" x2="30.6522" y2="5.74452" gradientUnits="userSpaceOnUse">
<stop offset="0.6" stop-color="#FFCA28"/>
<stop offset="1" stop-color="#FFB300"/>
</linearGradient>
<linearGradient id="paint5_linear_2_100" x1="30.8933" y1="6.07867" x2="30.8933" y2="35.711" gradientUnits="userSpaceOnUse">
<stop stop-color="#00BFA5"/>
<stop offset="0.47" stop-color="#00B29A"/>
<stop offset="1" stop-color="#009E89"/>
</linearGradient>
</defs>
</svg>
