<svg width="22" height="22" viewBox="0 0 22 22" fill="none" xmlns="http://www.w3.org/2000/svg">
<path d="M6.53125 0H6.62578C7.99648 0 9.26836 0.726602 9.96445 1.90996L11 3.67211L12.0355 1.90996C12.7316 0.726602 14.0035 0 15.3742 0H15.4688C17.557 0 19.25 1.69297 19.25 3.78125C19.25 4.4 19.0996 4.9457 18.8375 5.5H20.625C21.3855 5.5 22 6.11445 22 6.875V9.625C22 10.3855 21.3855 11 20.625 11H1.375C0.615742 11 0 10.3855 0 9.625V6.875C0 6.11445 0.615742 5.5 1.375 5.5H3.1625C2.89867 4.9457 2.75 4.4 2.75 3.78125C2.75 1.69297 4.44297 0 6.53125 0ZM8.18555 2.95539C7.85898 2.40238 7.26602 2.0625 6.62578 2.0625H6.53125C5.58164 2.0625 4.8125 2.83207 4.8125 3.78125C4.8125 4.73086 5.58164 5.5 6.53125 5.5H9.68086L8.18555 2.95539Z" fill="white"/>
<path d="M15.4687 2.0625H15.3742C14.734 2.0625 14.141 2.40238 13.8144 2.95539L12.3191 5.5H15.4687C16.4184 5.5 17.1875 4.73086 17.1875 3.78125C17.1875 2.83207 16.4184 2.0625 15.4687 2.0625Z" fill="#A27EAE"/>
<path d="M1.375 12.375H9.625V22H3.4375C2.2984 22 1.375 21.0762 1.375 19.9375V12.375ZM12.375 22V12.375H20.625V19.9375C20.625 21.0762 19.7012 22 18.5625 22H12.375Z" fill="white"/>
</svg>
