<svg width="23" height="23" viewBox="0 0 23 23" fill="none" xmlns="http://www.w3.org/2000/svg">
<path d="M20.3968 7.93094L14.6939 7.10213L12.1446 1.93387C12.075 1.79237 11.9605 1.67782 11.8189 1.60819C11.4641 1.43299 11.0328 1.57899 10.8554 1.93387L8.30606 7.10213L2.60323 7.93094C2.446 7.9534 2.30225 8.02752 2.19219 8.13983C2.05914 8.27658 1.98582 8.46057 1.98834 8.65136C1.99087 8.84214 2.06904 9.02412 2.20567 9.15731L6.33174 13.1801L5.35694 18.8604C5.33408 18.9926 5.3487 19.1285 5.39915 19.2527C5.44959 19.377 5.53384 19.4846 5.64235 19.5634C5.75085 19.6422 5.87926 19.689 6.01302 19.6986C6.14678 19.7081 6.28054 19.68 6.39912 19.6174L11.5 16.9355L16.6009 19.6174C16.7401 19.6915 16.9019 19.7162 17.0568 19.6892C17.4477 19.6219 17.7105 19.2513 17.6431 18.8604L16.6683 13.1801L20.7943 9.15731C20.9066 9.04725 20.9808 8.9035 21.0032 8.74627C21.0639 8.35321 20.7898 7.98934 20.3968 7.93094V7.93094Z" fill="white"/>
</svg>
