<svg width="414" height="571" viewBox="0 0 414 571" fill="none" xmlns="http://www.w3.org/2000/svg">
<g clip-path="url(#clip0_106_26)">
<path d="M48.0098 391.962C48.2093 391.19 48.3091 390.395 48.3068 389.598L48.2949 389.087L48.2949 389.111C48.2645 385.599 46.9563 382.219 44.6149 379.602C42.2734 376.986 39.0591 375.311 35.5727 374.892L35.5015 374.892L35.5015 351.562C39.0007 351.159 42.2322 349.491 44.5882 346.873C46.9441 344.254 48.2623 340.865 48.2949 337.343C48.2645 333.832 46.9563 330.452 44.6148 327.835C42.2734 325.218 39.0591 323.543 35.5727 323.124L35.5015 323.124L35.5015 299.794C39.0007 299.391 42.2321 297.724 44.5881 295.105C46.9441 292.487 48.2623 289.098 48.2949 285.576C48.2645 282.064 46.9563 278.684 44.6149 276.067C42.2734 273.45 39.0591 271.776 35.5727 271.357L35.5015 271.357L35.5014 248.027C39.0007 247.624 42.2321 245.956 44.5881 243.338C46.9441 240.719 48.2623 237.33 48.2948 233.808C48.2644 230.297 46.9563 226.917 44.6148 224.3C42.2734 221.683 39.0591 220.008 35.5727 219.589L35.5015 219.589L35.5015 196.259C39.0007 195.856 42.2321 194.189 44.5881 191.57C46.9441 188.952 48.2623 185.563 48.2949 182.041C48.2949 181.47 48.0216 180.912 48.0098 180.33L378.619 180.33C378.452 180.734 378.345 181.221 378.345 181.72L378.357 182.064L378.357 182.041L378.357 182.183C378.356 184.034 378.719 185.866 379.427 187.576C380.134 189.286 381.172 190.84 382.481 192.148C383.789 193.457 385.343 194.494 387.053 195.202C388.762 195.909 390.595 196.273 392.446 196.271L392.588 196.271C393.158 196.271 393.443 195.986 394.013 195.986L394.014 219.34C393.648 219.145 393.239 219.047 392.826 219.055L392.576 219.067C390.529 219.148 388.521 219.651 386.677 220.542C384.833 221.434 383.193 222.696 381.857 224.249C380.522 225.803 379.522 227.615 378.917 229.572C378.313 231.529 378.118 233.59 378.345 235.626L378.345 235.554L378.345 235.697C378.344 237.547 378.708 239.38 379.415 241.09C380.123 242.8 381.16 244.353 382.469 245.662C383.777 246.97 385.331 248.008 387.041 248.715C388.751 249.423 390.583 249.786 392.434 249.785L392.576 249.785C393.146 249.785 393.431 249.5 394.002 249.5L394.002 272.83C393.636 272.635 393.228 272.537 392.814 272.545L392.564 272.557C388.79 272.557 385.17 274.056 382.502 276.725C379.833 279.393 378.334 283.013 378.334 286.787C378.334 290.561 379.833 294.181 382.502 296.85C385.17 299.519 388.79 301.018 392.564 301.018C393.134 301.018 393.42 300.733 393.99 300.733L393.99 324.063C393.617 323.864 393.2 323.766 392.778 323.778L392.552 323.79C390.684 323.79 388.833 324.158 387.107 324.873C385.38 325.588 383.811 326.636 382.49 327.958C381.168 329.279 380.12 330.848 379.405 332.574C378.69 334.301 378.322 336.151 378.322 338.02C378.322 339.889 378.69 341.74 379.405 343.466C380.12 345.193 381.168 346.761 382.49 348.083C383.811 349.404 385.38 350.453 387.107 351.168C388.833 351.883 390.684 352.251 392.552 352.251C393.123 352.251 393.408 351.966 393.978 351.966L393.978 375.296C393.613 375.101 393.204 375.003 392.79 375.011L392.541 375.023L392.398 375.023C390.548 375.021 388.715 375.385 387.005 376.092C385.295 376.8 383.742 377.837 382.433 379.146C381.125 380.454 380.087 382.008 379.379 383.718C378.672 385.428 378.308 387.26 378.31 389.111L378.31 389.229L378.298 389.693C378.296 390.518 378.4 391.341 378.607 392.14L378.595 392.08L48.0098 391.962ZM287.354 372.611L287.354 375.462C287.392 376.568 287.858 377.616 288.654 378.384C289.449 379.153 290.512 379.583 291.619 379.583C292.725 379.583 293.788 379.153 294.584 378.384C295.38 377.616 295.845 376.568 295.883 375.462L295.883 372.564C295.845 371.458 295.38 370.41 294.584 369.641C293.788 368.872 292.725 368.443 291.619 368.443C290.512 368.443 289.449 368.872 288.654 369.641C287.858 370.41 287.392 371.458 287.354 372.564L287.354 372.611ZM343.683 315.997L343.683 366.078C343.721 367.184 344.187 368.231 344.983 369C345.778 369.769 346.841 370.199 347.948 370.199C349.054 370.199 350.117 369.769 350.913 369C351.709 368.231 352.174 367.184 352.212 366.078L352.212 315.997C352.174 314.891 351.709 313.844 350.913 313.075C350.117 312.306 349.054 311.876 347.948 311.876C346.841 311.876 345.778 312.306 344.983 313.075C344.187 313.844 343.721 314.891 343.683 315.997ZM325.129 205.026L325.129 366.054C325.167 367.16 325.632 368.208 326.428 368.976C327.224 369.745 328.287 370.175 329.393 370.175C330.5 370.175 331.563 369.745 332.358 368.976C333.154 368.208 333.62 367.16 333.658 366.054L333.658 205.026C333.62 203.92 333.154 202.872 332.358 202.104C331.563 201.335 330.5 200.905 329.393 200.905C328.287 200.905 327.224 201.335 326.428 202.104C325.632 202.872 325.167 203.92 325.129 205.026ZM287.295 352.691L287.295 355.541C287.333 356.647 287.799 357.695 288.594 358.464C289.39 359.233 290.453 359.662 291.559 359.662C292.666 359.662 293.729 359.233 294.525 358.464C295.32 357.695 295.786 356.647 295.824 355.541L295.824 352.69C295.786 351.585 295.32 350.537 294.525 349.768C293.729 348.999 292.666 348.569 291.559 348.569C290.453 348.569 289.39 348.999 288.594 349.768C287.799 350.537 287.333 351.585 287.295 352.691ZM287.295 332.782L287.295 335.633C287.333 336.738 287.799 337.786 288.594 338.555C289.39 339.324 290.453 339.754 291.559 339.754C292.666 339.754 293.729 339.324 294.525 338.555C295.32 337.786 295.786 336.738 295.824 335.633L295.824 332.782C295.786 331.676 295.32 330.628 294.525 329.859C293.729 329.09 292.666 328.661 291.559 328.661C290.453 328.661 289.39 329.09 288.594 329.859C287.799 330.628 287.333 331.676 287.295 332.782ZM287.295 312.873L287.295 315.724C287.333 316.83 287.799 317.877 288.594 318.646C289.39 319.415 290.453 319.845 291.559 319.845C292.666 319.845 293.729 319.415 294.525 318.646C295.32 317.877 295.786 316.83 295.824 315.724L295.824 312.849C295.786 311.743 295.32 310.696 294.525 309.927C293.729 309.158 292.666 308.728 291.559 308.728C290.453 308.728 289.39 309.158 288.594 309.927C287.799 310.696 287.333 311.743 287.295 312.849L287.295 312.873ZM287.224 292.964L287.224 295.815C287.262 296.921 287.727 297.969 288.523 298.738C289.319 299.506 290.382 299.936 291.488 299.936C292.595 299.936 293.658 299.506 294.453 298.738C295.249 297.969 295.715 296.921 295.753 295.815L295.753 292.94C295.715 291.835 295.249 290.787 294.453 290.018C293.658 289.249 292.595 288.819 291.488 288.819C290.382 288.819 289.319 289.249 288.523 290.018C287.727 290.787 287.262 291.835 287.224 292.94L287.224 292.964ZM287.224 273.055L287.224 275.883C287.262 276.988 287.727 278.036 288.523 278.805C289.319 279.574 290.382 280.004 291.488 280.004C292.595 280.004 293.658 279.574 294.453 278.805C295.249 278.036 295.715 276.988 295.753 275.883L295.753 273.055C295.715 271.95 295.249 270.902 294.453 270.133C293.658 269.364 292.595 268.934 291.488 268.934C290.382 268.934 289.319 269.364 288.523 270.133C287.727 270.902 287.262 271.95 287.224 273.055ZM287.224 253.123L287.224 255.974C287.262 257.08 287.727 258.127 288.523 258.896C289.319 259.665 290.382 260.095 291.488 260.095C292.595 260.095 293.658 259.665 294.453 258.896C295.249 258.127 295.715 257.08 295.753 255.974L295.753 253.123C295.715 252.017 295.249 250.969 294.453 250.201C293.658 249.432 292.595 249.002 291.488 249.002C290.382 249.002 289.319 249.432 288.523 250.201C287.727 250.969 287.262 252.017 287.224 253.123ZM342.697 237.467L342.697 251.698C342.735 252.803 343.201 253.851 343.997 254.62C344.792 255.389 345.855 255.818 346.962 255.818C348.068 255.818 349.131 255.389 349.927 254.62C350.723 253.851 351.188 252.803 351.226 251.697L351.226 237.467C351.188 236.361 350.723 235.313 349.927 234.544C349.131 233.776 348.068 233.346 346.962 233.346C345.855 233.346 344.792 233.776 343.997 234.544C343.201 235.313 342.735 236.361 342.697 237.467ZM287.224 233.214L287.224 236.065C287.262 237.171 287.727 238.219 288.523 238.987C289.319 239.756 290.382 240.186 291.488 240.186C292.595 240.186 293.658 239.756 294.453 238.987C295.249 238.219 295.715 237.171 295.753 236.065L295.753 233.214C295.715 232.108 295.249 231.061 294.453 230.292C293.658 229.523 292.595 229.093 291.488 229.093C290.382 229.093 289.319 229.523 288.523 230.292C287.727 231.061 287.262 232.108 287.224 233.214ZM342.697 206.463L342.697 220.623C342.735 221.728 343.201 222.776 343.997 223.545C344.792 224.314 345.855 224.744 346.962 224.744C348.068 224.744 349.131 224.314 349.927 223.545C350.723 222.776 351.188 221.728 351.226 220.623L351.226 206.463C351.188 205.358 350.723 204.31 349.927 203.541C349.131 202.772 348.068 202.342 346.962 202.342C345.855 202.342 344.792 202.772 343.997 203.541C343.201 204.31 342.735 205.358 342.697 206.463ZM287.236 213.294L287.236 216.144C287.273 217.25 287.739 218.298 288.535 219.067C289.331 219.836 290.394 220.265 291.5 220.265C292.606 220.265 293.67 219.836 294.465 219.067C295.261 218.298 295.727 217.25 295.764 216.144L295.765 213.27C295.727 212.164 295.261 211.116 294.465 210.347C293.67 209.579 292.606 209.149 291.5 209.149C290.394 209.149 289.331 209.579 288.535 210.347C287.739 211.116 287.273 212.164 287.236 213.27L287.236 213.294ZM287.224 193.373L287.224 196.224C287.262 197.33 287.727 198.377 288.523 199.146C289.319 199.915 290.382 200.345 291.488 200.345C292.595 200.345 293.658 199.915 294.453 199.146C295.249 198.377 295.715 197.33 295.753 196.224L295.753 193.349C295.715 192.243 295.249 191.196 294.453 190.427C293.658 189.658 292.595 189.228 291.488 189.228C290.382 189.228 289.319 189.658 288.523 190.427C287.727 191.196 287.262 192.243 287.224 193.349L287.224 193.373ZM128.548 347.012L135.663 339.612L209.905 339.612L217.02 347.012L128.548 347.012ZM141.341 310.58C139.154 310.573 137.058 309.701 135.511 308.155C133.964 306.608 133.092 304.512 133.085 302.325L133.085 275.883L209.347 275.883L209.347 302.325C209.34 304.512 208.468 306.608 206.921 308.155C205.374 309.701 203.278 310.573 201.091 310.58L141.341 310.58ZM177.464 294.366C177.463 296.955 178.229 299.486 179.666 301.639C181.104 303.793 183.147 305.471 185.539 306.463C187.931 307.454 190.562 307.714 193.102 307.209C195.641 306.705 197.974 305.458 199.804 303.627C201.635 301.797 202.881 299.464 203.386 296.925C203.891 294.386 203.631 291.754 202.639 289.362C201.648 286.971 199.969 284.927 197.816 283.49C195.663 282.052 193.132 281.286 190.543 281.287C187.087 281.329 183.784 282.72 181.34 285.164C178.897 287.607 177.506 290.91 177.464 294.366ZM138.205 294.378L138.205 294.402C138.203 296.117 138.539 297.815 139.194 299.4C139.849 300.985 140.81 302.425 142.023 303.638C143.236 304.851 144.676 305.812 146.261 306.468C147.846 307.123 149.545 307.459 151.26 307.456L151.283 307.456C158.47 307.373 164.279 301.564 164.362 294.378C164.445 287.191 164.362 294.354 164.362 294.354C164.364 292.639 164.028 290.94 163.373 289.355C162.718 287.77 161.757 286.33 160.544 285.117C159.331 283.905 157.891 282.943 156.306 282.288C154.721 281.633 153.022 281.297 151.307 281.299L151.283 281.299C147.828 281.341 144.525 282.732 142.081 285.176C139.637 287.619 138.246 290.922 138.205 294.378ZM186.005 294.093C186.009 293.194 186.279 292.317 186.781 291.571C187.283 290.826 187.994 290.246 188.825 289.904C189.656 289.562 190.57 289.473 191.451 289.649C192.332 289.826 193.141 290.259 193.777 290.894C194.412 291.53 194.845 292.339 195.022 293.22C195.198 294.101 195.109 295.015 194.767 295.846C194.425 296.677 193.845 297.388 193.1 297.89C192.354 298.392 191.477 298.662 190.578 298.666L190.507 298.666C189.317 298.663 188.177 298.189 187.336 297.347C186.494 296.506 186.02 295.366 186.017 294.176L186.017 294.105L186.005 294.093ZM146.746 294.081C146.744 293.176 147.011 292.292 147.513 291.539C148.014 290.787 148.728 290.2 149.563 289.853C150.398 289.506 151.318 289.415 152.205 289.591C153.092 289.767 153.907 290.202 154.546 290.842C155.186 291.481 155.621 292.296 155.797 293.183C155.973 294.071 155.882 294.99 155.535 295.825C155.188 296.66 154.601 297.374 153.849 297.875C153.096 298.377 152.212 298.644 151.307 298.642L151.236 298.642C150.046 298.639 148.906 298.165 148.064 297.324C147.223 296.482 146.749 295.342 146.746 294.152L146.746 294.081ZM133.073 267.342L133.073 244.582L133.073 244.44C133.073 241.841 133.585 239.267 134.58 236.866C135.574 234.465 137.032 232.283 138.87 230.446C140.707 228.608 142.889 227.15 145.29 226.156C147.691 225.161 150.264 224.65 152.863 224.65L152.982 224.65L189.379 224.65L189.521 224.65C200.45 224.65 209.311 233.511 209.311 244.44L209.311 244.558L209.311 267.318L133.073 267.342Z" fill="#A27EAE"/>
</g>
<defs>
<clipPath id="clip0_106_26">
<rect width="403.178" height="403.178" fill="white" transform="translate(218.09) rotate(45)"/>
</clipPath>
</defs>
</svg>
