<svg width="77" height="77" viewBox="0 0 77 77" fill="none" xmlns="http://www.w3.org/2000/svg">
<path d="M49.0374 9.74049C48.4118 9.11478 47.669 8.61844 46.8515 8.2798C46.034 7.94117 45.1579 7.76688 44.273 7.76688C43.3882 7.76688 42.512 7.94117 41.6945 8.2798C40.8771 8.61844 40.1343 9.11478 39.5087 9.74049L9.74046 39.5087C9.11475 40.1343 8.61841 40.8771 8.27977 41.6946C7.94114 42.512 7.76685 43.3882 7.76685 44.2731C7.76685 45.1579 7.94114 46.0341 8.27977 46.8515C8.61841 47.669 9.11475 48.4118 9.74046 49.0374L12.7242 52.0212C14.2912 53.5881 16.5203 53.3186 17.9063 52.5602C18.8188 52.0623 19.8681 51.8732 20.897 52.0214C21.9259 52.1695 22.8792 52.6467 23.6143 53.3818C24.3493 54.1169 24.8266 55.0702 24.9747 56.0991C25.1228 57.128 24.9338 58.1772 24.4359 59.0898C23.6775 60.4758 23.4118 62.7088 24.9749 64.2757L27.9587 67.2556C28.5843 67.8813 29.3271 68.3777 30.1445 68.7163C30.962 69.055 31.8382 69.2292 32.723 69.2292C33.6079 69.2292 34.484 69.055 35.3015 68.7163C36.119 68.3777 36.8618 67.8813 37.4874 67.2556L67.2556 37.4874C67.8813 36.8618 68.3777 36.119 68.7163 35.3015C69.0549 34.4841 69.2292 33.6079 69.2292 32.7231C69.2292 31.8382 69.0549 30.9621 68.7163 30.1446C68.3777 29.3271 67.8813 28.5843 67.2556 27.9587L64.2719 24.9749C62.7088 23.4118 60.4796 23.6775 59.0936 24.4359C58.1811 24.9338 57.1318 25.1229 56.1029 24.9748C55.074 24.8267 54.1207 24.3494 53.3856 23.6143C52.6506 22.8793 52.1733 21.9259 52.0252 20.897C51.8771 19.8681 52.0661 18.8189 52.564 17.9063C53.3186 16.5203 53.5881 14.2873 52.025 12.7242L49.0374 9.74049V9.74049Z" fill="#F3EAFF"/>
</svg>
