<svg width="19" height="19" viewBox="0 0 19 19" fill="none" xmlns="http://www.w3.org/2000/svg">
<g clip-path="url(#clip0_2_28)">
<path fill-rule="evenodd" clip-rule="evenodd" d="M13.7869 11.3857C13.551 11.2678 12.3943 10.6993 12.179 10.6202C11.9637 10.5418 11.8069 10.503 11.6494 10.7389C11.4926 10.9733 11.0422 11.5037 10.9052 11.6604C10.7675 11.818 10.6305 11.837 10.3954 11.7198C10.1602 11.6011 9.40183 11.3533 8.50329 10.5521C7.80425 9.92826 7.33163 9.15797 7.19467 8.92206C7.05771 8.68693 7.17963 8.55947 7.29758 8.4423C7.40367 8.33701 7.53271 8.1676 7.65067 8.03064C7.76862 7.89289 7.80742 7.79472 7.88579 7.63718C7.96496 7.48043 7.92538 7.34347 7.866 7.22551C7.80742 7.10755 7.33717 5.94935 7.14083 5.4783C6.95004 5.01993 6.75608 5.08247 6.612 5.07455C6.47425 5.06822 6.3175 5.06664 6.16075 5.06664C6.004 5.06664 5.74908 5.12522 5.53375 5.36114C5.31762 5.59626 4.71042 6.16547 4.71042 7.32368C4.71042 8.4811 5.55275 9.59972 5.67071 9.75726C5.78867 9.91401 7.32925 12.2906 9.68921 13.3095C10.2513 13.5517 10.6891 13.6966 11.0303 13.8043C11.594 13.984 12.107 13.9586 12.5123 13.8977C12.9635 13.8304 13.904 13.3285 14.1004 12.7791C14.2959 12.2296 14.2959 11.7586 14.2373 11.6604C14.1787 11.5623 14.022 11.5037 13.7861 11.3857H13.7869ZM9.49446 17.2464H9.49129C8.08959 17.2467 6.71363 16.8699 5.50762 16.1555L5.22263 15.9861L2.26021 16.7635L3.05108 13.8755L2.86504 13.5794C2.0814 12.332 1.66669 10.8884 1.66883 9.41526C1.67042 5.10068 5.18067 1.59043 9.49763 1.59043C11.5876 1.59043 13.5525 2.40585 15.0298 3.88468C15.7584 4.61031 16.3359 5.47321 16.7289 6.42347C17.1219 7.37374 17.3226 8.39249 17.3193 9.4208C17.3177 13.7354 13.8075 17.2464 9.49446 17.2464V17.2464ZM16.154 2.7613C15.2817 1.88329 14.2439 1.1871 13.1006 0.713105C11.9573 0.239105 10.7313 -0.00328806 9.49367 -2.85946e-05C4.30508 -2.85946e-05 0.08075 4.22351 0.0791667 9.41447C0.0767624 11.0665 0.51013 12.6899 1.33554 14.1209L0 19L4.99067 17.6906C6.37123 18.4427 7.91832 18.8369 9.4905 18.8369H9.49446C14.683 18.8369 18.9074 14.6133 18.909 9.4216C18.9128 8.18444 18.6713 6.9588 18.1984 5.81558C17.7255 4.67236 17.0306 3.63425 16.154 2.7613" fill="white"/>
</g>
<defs>
<clipPath id="clip0_2_28">
<rect width="19" height="19" fill="white"/>
</clipPath>
</defs>
</svg>
